<svg xmlns="http://www.w3.org/2000/svg" viewBox="0 0 800 600" width="800" height="600" role="img" aria-labelledby="t">
  <title id="t">Placeholder: Camera Lavanda, ambiente romantico con doccia in pietra</title>
  <defs>
    <linearGradient id="w" x1="0" y1="0" x2="0" y2="1">
      <stop offset="0%" stop-color="#f6f1e8"/><stop offset="100%" stop-color="#e8e0d5"/>
    </linearGradient>
    <linearGradient id="lav" x1="0" y1="0" x2="1" y2="1">
      <stop offset="0%" stop-color="#b9b2c4"/><stop offset="100%" stop-color="#9aa88f"/>
    </linearGradient>
  </defs>
  <rect width="800" height="600" fill="url(#w)"/>
  <rect x="0" y="0" width="800" height="600" fill="url(#lav)" opacity="0.14"/>
  <rect x="500" y="120" width="230" height="330" rx="6" fill="#d8cdbd"/>
  <rect x="500" y="120" width="230" height="330" rx="6" fill="none" stroke="#a8684b" stroke-width="5"/>
  <g stroke="#c3b7a4" stroke-width="2" opacity="0.8">
    <line x1="500" y1="200" x2="730" y2="200"/><line x1="500" y1="280" x2="730" y2="280"/>
    <line x1="500" y1="360" x2="730" y2="360"/><line x1="576" y1="120" x2="576" y2="450"/><line x1="654" y1="120" x2="654" y2="450"/>
  </g>
  <circle cx="615" cy="160" r="16" fill="#9aa88f"/>
  <g stroke="#9aa88f" stroke-width="2" opacity="0.55">
    <line x1="600" y1="180" x2="596" y2="300"/><line x1="615" y1="180" x2="615" y2="310"/><line x1="630" y1="180" x2="634" y2="300"/>
  </g>
  <rect x="60" y="170" width="320" height="140" rx="8" fill="#c8bfd0"/>
  <rect x="50" y="310" width="340" height="30" rx="6" fill="#8a6a4a"/>
  <rect x="50" y="336" width="340" height="132" rx="8" fill="#ffffff"/>
  <rect x="50" y="336" width="340" height="46" rx="8" fill="#f1eae0"/>
  <rect x="82" y="300" width="114" height="52" rx="11" fill="#ffffff"/>
  <rect x="236" y="300" width="114" height="52" rx="11" fill="#ffffff"/>
  <rect x="50" y="468" width="340" height="20" rx="4" fill="#d8cdbd"/>
  <g fill="#a8684b" opacity="0.75">
    <circle cx="420" cy="420" r="6"/><circle cx="440" cy="404" r="6"/><circle cx="456" cy="424" r="6"/>
  </g>
  <rect x="0" y="530" width="800" height="70" fill="#d8cdbd" opacity="0.5"/>
</svg>
