<svg xmlns="http://www.w3.org/2000/svg" viewBox="0 0 800 600" width="800" height="600" role="img" aria-labelledby="t">
  <title id="t">Placeholder: Camera Vigna, letto queen size e balcone sui filari</title>
  <defs>
    <linearGradient id="w" x1="0" y1="0" x2="0" y2="1">
      <stop offset="0%" stop-color="#f6f1e8"/><stop offset="100%" stop-color="#e4dccb"/>
    </linearGradient>
    <linearGradient id="v" x1="0" y1="0" x2="0" y2="1">
      <stop offset="0%" stop-color="#dfe4d2"/><stop offset="60%" stop-color="#9aa88f"/><stop offset="100%" stop-color="#536b56"/>
    </linearGradient>
  </defs>
  <rect width="800" height="600" fill="url(#w)"/>
  <rect x="420" y="60" width="330" height="330" rx="4" fill="url(#v)"/>
  <g stroke="#3a5040" stroke-width="3" opacity="0.35">
    <path d="M430 330 L740 268"/><path d="M430 360 L740 298"/><path d="M430 300 L740 240"/>
  </g>
  <g fill="#536b56" opacity="0.45">
    <circle cx="500" cy="300" r="9"/><circle cx="560" cy="288" r="9"/><circle cx="620" cy="278" r="9"/><circle cx="680" cy="266" r="9"/>
  </g>
  <rect x="420" y="60" width="330" height="330" rx="4" fill="none" stroke="#a8684b" stroke-width="7"/>
  <line x1="585" y1="60" x2="585" y2="390" stroke="#a8684b" stroke-width="5"/>
  <g stroke="#8a6a4a" stroke-width="5" opacity="0.9">
    <line x1="420" y1="400" x2="750" y2="400"/>
    <line x1="450" y1="400" x2="450" y2="450"/><line x1="520" y1="400" x2="520" y2="450"/>
    <line x1="590" y1="400" x2="590" y2="450"/><line x1="660" y1="400" x2="660" y2="450"/><line x1="730" y1="400" x2="730" y2="450"/>
    <line x1="420" y1="450" x2="750" y2="450"/>
  </g>
  <rect x="50" y="140" width="330" height="160" rx="8" fill="#a8845f"/>
  <rect x="40" y="300" width="350" height="34" rx="6" fill="#8a6a4a"/>
  <rect x="40" y="330" width="350" height="140" rx="8" fill="#ffffff"/>
  <rect x="40" y="330" width="350" height="50" rx="8" fill="#efe7d9"/>
  <rect x="74" y="292" width="118" height="54" rx="11" fill="#ffffff"/>
  <rect x="230" y="292" width="118" height="54" rx="11" fill="#ffffff"/>
  <rect x="40" y="470" width="350" height="22" rx="4" fill="#d8cdbd"/>
  <rect x="0" y="520" width="800" height="80" fill="#d8cdbd" opacity="0.5"/>
</svg>
