<svg xmlns="http://www.w3.org/2000/svg" viewBox="0 0 1200 800" width="1200" height="800" role="img" aria-labelledby="t">
  <title id="t">Placeholder: facciata in pietra della dimora con il giardino</title>
  <defs>
    <linearGradient id="sky" x1="0" y1="0" x2="0" y2="1">
      <stop offset="0%" stop-color="#eee5d4"/><stop offset="100%" stop-color="#d3cbba"/>
    </linearGradient>
  </defs>
  <rect width="1200" height="800" fill="url(#sky)"/>
  <rect x="0" y="560" width="1200" height="240" fill="#7d8f7a"/>
  <rect x="0" y="620" width="1200" height="180" fill="#536b56" opacity="0.65"/>
  <g fill="#f0e8da">
    <rect x="300" y="250" width="600" height="330" rx="4"/>
    <path d="M270 254 L600 110 L930 254 Z" fill="#a8684b"/>
  </g>
  <g fill="#26382d" opacity="0.82">
    <rect x="356" y="320" width="70" height="100" rx="3"/>
    <rect x="486" y="320" width="70" height="100" rx="3"/>
    <rect x="644" y="320" width="70" height="100" rx="3"/>
    <rect x="774" y="320" width="70" height="100" rx="3"/>
    <rect x="356" y="460" width="70" height="100" rx="3"/>
    <rect x="774" y="460" width="70" height="100" rx="3"/>
    <path d="M540 580 L540 470 A60 60 0 0 1 660 470 L660 580 Z"/>
  </g>
  <g stroke="#c9bda9" stroke-width="2" opacity="0.6">
    <line x1="300" y1="300" x2="900" y2="300"/><line x1="300" y1="380" x2="900" y2="380"/>
    <line x1="300" y1="450" x2="900" y2="450"/><line x1="300" y1="520" x2="900" y2="520"/>
  </g>
  <g fill="#3a5040">
    <ellipse cx="180" cy="520" rx="76" ry="92"/><rect x="172" y="510" width="14" height="110"/>
    <ellipse cx="1030" cy="540" rx="66" ry="80"/><rect x="1024" y="530" width="12" height="98"/>
  </g>
  <g fill="#9aa88f" opacity="0.75">
    <ellipse cx="420" cy="640" rx="60" ry="20"/><ellipse cx="760" cy="668" rx="70" ry="22"/>
  </g>
  <g stroke="#d8cdbd" stroke-width="26" stroke-linecap="round" opacity="0.85">
    <path d="M600 800 L600 660"/>
  </g>
</svg>
