<svg xmlns="http://www.w3.org/2000/svg" viewBox="0 0 800 600" width="800" height="600" role="img" aria-labelledby="t">
  <title id="t">Placeholder: colonnato di una villa palladiana</title>
  <defs>
    <linearGradient id="s" x1="0" y1="0" x2="0" y2="1">
      <stop offset="0%" stop-color="#eee6d5"/><stop offset="100%" stop-color="#cfc5b2"/>
    </linearGradient>
  </defs>
  <rect width="800" height="600" fill="url(#s)"/>
  <rect x="0" y="470" width="800" height="130" fill="#9aa88f"/>
  <path d="M110 210 L400 90 L690 210 Z" fill="#f3ece0"/>
  <path d="M110 210 L400 90 L690 210 Z" fill="none" stroke="#c9bda9" stroke-width="4"/>
  <path d="M250 200 L400 138 L550 200 Z" fill="#d8cdbd" opacity="0.8"/>
  <rect x="96" y="210" width="608" height="26" rx="3" fill="#e6ddcd"/>
  <g fill="#f6f1e8">
    <rect x="140" y="236" width="46" height="200" rx="4"/>
    <rect x="248" y="236" width="46" height="200" rx="4"/>
    <rect x="356" y="236" width="46" height="200" rx="4"/>
    <rect x="464" y="236" width="46" height="200" rx="4"/>
    <rect x="572" y="236" width="46" height="200" rx="4"/>
  </g>
  <g fill="#d8cdbd">
    <rect x="132" y="230" width="62" height="14" rx="3"/><rect x="240" y="230" width="62" height="14" rx="3"/>
    <rect x="348" y="230" width="62" height="14" rx="3"/><rect x="456" y="230" width="62" height="14" rx="3"/>
    <rect x="564" y="230" width="62" height="14" rx="3"/>
    <rect x="120" y="432" width="620" height="18" rx="3"/>
  </g>
  <g stroke="#c9bda9" stroke-width="2" opacity="0.7">
    <line x1="160" y1="250" x2="160" y2="430"/><line x1="268" y1="250" x2="268" y2="430"/>
    <line x1="376" y1="250" x2="376" y2="430"/><line x1="484" y1="250" x2="484" y2="430"/><line x1="592" y1="250" x2="592" y2="430"/>
  </g>
  <g fill="#536b56">
    <ellipse cx="60" cy="440" rx="46" ry="58"/><ellipse cx="746" cy="450" rx="42" ry="52"/>
  </g>
  <rect x="0" y="520" width="800" height="80" fill="#7d8f7a" opacity="0.5"/>
</svg>
