<svg xmlns="http://www.w3.org/2000/svg" viewBox="0 0 800 600" width="800" height="600" role="img" aria-labelledby="t">
  <title id="t">Placeholder: oli essenziali e asciugamani arrotolati</title>
  <defs>
    <linearGradient id="s" x1="0" y1="0" x2="1" y2="1">
      <stop offset="0%" stop-color="#f2ece1"/><stop offset="100%" stop-color="#d9d3c4"/>
    </linearGradient>
  </defs>
  <rect width="800" height="600" fill="url(#s)"/>
  <rect x="0" y="420" width="800" height="180" fill="#c9b9a1" opacity="0.65"/>
  <g fill="#f6f1e8">
    <rect x="120" y="330" width="180" height="110" rx="55"/>
    <rect x="150" y="230" width="150" height="96" rx="48"/>
  </g>
  <g fill="none" stroke="#d8cdbd" stroke-width="5">
    <circle cx="210" cy="385" r="30"/><circle cx="225" cy="278" r="26"/>
  </g>
  <g>
    <rect x="420" y="290" width="66" height="150" rx="12" fill="#9aa88f"/>
    <rect x="438" y="252" width="30" height="46" rx="6" fill="#7d8f7a"/>
    <rect x="432" y="240" width="42" height="18" rx="6" fill="#536b56"/>
    <rect x="430" y="340" width="46" height="60" rx="6" fill="#f6f1e8" opacity="0.75"/>
  </g>
  <g>
    <rect x="530" y="320" width="54" height="120" rx="10" fill="#a8684b"/>
    <rect x="544" y="288" width="26" height="38" rx="5" fill="#8f5539"/>
    <rect x="538" y="358" width="38" height="46" rx="5" fill="#f6f1e8" opacity="0.7"/>
  </g>
  <g fill="#536b56" opacity="0.85">
    <ellipse cx="650" cy="410" rx="34" ry="16" transform="rotate(-25 650 410)"/>
    <ellipse cx="686" cy="428" rx="30" ry="14" transform="rotate(-10 686 428)"/>
  </g>
  <g fill="#8a8f7d" opacity="0.5">
    <circle cx="330" cy="470" r="26"/><circle cx="372" cy="486" r="20"/><circle cx="300" cy="492" r="17"/>
  </g>
</svg>
