<svg xmlns="http://www.w3.org/2000/svg" viewBox="0 0 800 600" width="800" height="600" role="img" aria-labelledby="t">
  <title id="t">Placeholder: cesto da picnic con plaid tra gli ulivi</title>
  <rect width="800" height="600" fill="#dfe3d3"/>
  <path d="M0 260 C 200 220, 400 290, 600 250 S 760 230, 800 262 L800 600 L0 600Z" fill="#9aa88f"/>
  <path d="M0 340 C 220 305, 460 370, 660 335 S 780 322, 800 344 L800 600 L0 600Z" fill="#7d8f7a"/>
  <g fill="#536b56">
    <ellipse cx="140" cy="230" rx="70" ry="86"/><rect x="132" y="220" width="14" height="130" fill="#8a6a4a"/>
    <ellipse cx="670" cy="250" rx="60" ry="74"/><rect x="664" y="240" width="12" height="116" fill="#8a6a4a"/>
  </g>
  <g transform="rotate(-6 400 470)">
    <rect x="180" y="410" width="440" height="180" rx="10" fill="#c96b4f" opacity="0.85"/>
    <g stroke="#f6f1e8" stroke-width="6" opacity="0.7">
      <line x1="180" y1="460" x2="620" y2="460"/><line x1="180" y1="520" x2="620" y2="520"/>
      <line x1="290" y1="410" x2="290" y2="590"/><line x1="400" y1="410" x2="400" y2="590"/><line x1="510" y1="410" x2="510" y2="590"/>
    </g>
  </g>
  <g>
    <rect x="330" y="330" width="150" height="110" rx="10" fill="#b0844f"/>
    <path d="M340 330 q65 -70 130 0" stroke="#8a6a4a" stroke-width="12" fill="none"/>
    <g stroke="#8a6a4a" stroke-width="4" opacity="0.7">
      <line x1="330" y1="366" x2="480" y2="366"/><line x1="330" y1="404" x2="480" y2="404"/>
      <line x1="380" y1="330" x2="380" y2="440"/><line x1="430" y1="330" x2="430" y2="440"/>
    </g>
  </g>
  <g fill="#26382d" opacity="0.85">
    <rect x="530" y="360" width="26" height="80" rx="6"/><rect x="536" y="336" width="12" height="30" rx="3"/>
  </g>
</svg>
