<svg xmlns="http://www.w3.org/2000/svg" viewBox="0 0 800 600" width="800" height="600" role="img" aria-labelledby="t">
  <title id="t">Placeholder: auto privata davanti a un muro in pietra</title>
  <rect width="800" height="600" fill="#e4dccb"/>
  <rect x="0" y="0" width="800" height="380" fill="#cfc5b2"/>
  <g stroke="#bcb09b" stroke-width="3" opacity="0.85">
    <line x1="0" y1="80" x2="800" y2="80"/><line x1="0" y1="160" x2="800" y2="160"/>
    <line x1="0" y1="240" x2="800" y2="240"/><line x1="0" y1="320" x2="800" y2="320"/>
    <line x1="130" y1="0" x2="130" y2="380"/><line x1="330" y1="0" x2="330" y2="380"/>
    <line x1="530" y1="0" x2="530" y2="380"/><line x1="700" y1="0" x2="700" y2="380"/>
  </g>
  <rect x="0" y="380" width="800" height="220" fill="#8f8a7e"/>
  <rect x="0" y="380" width="800" height="12" fill="#7a7568"/>
  <g fill="#26382d">
    <path d="M140 470 q30 -90 110 -96 h180 q80 12 128 96 Z"/>
    <rect x="130" y="466" width="530" height="60" rx="18"/>
  </g>
  <g fill="#9aa88f" opacity="0.8">
    <path d="M262 392 h116 v56 h-140 Z"/>
    <path d="M400 392 h96 l44 56 h-140 Z"/>
  </g>
  <g fill="#1a1a17">
    <circle cx="240" cy="528" r="46"/><circle cx="560" cy="528" r="46"/>
  </g>
  <g fill="#d8cdbd">
    <circle cx="240" cy="528" r="18"/><circle cx="560" cy="528" r="18"/>
  </g>
  <rect x="628" y="484" width="36" height="16" rx="6" fill="#f0e0b8"/>
  <rect x="136" y="484" width="30" height="14" rx="6" fill="#a8684b"/>
</svg>
