<svg xmlns="http://www.w3.org/2000/svg" viewBox="0 0 800 600" width="800" height="600" role="img" aria-labelledby="t">
  <title id="t">Placeholder: pasta fresca stesa su un tagliere infarinato</title>
  <rect width="800" height="600" fill="#efe7d9"/>
  <rect x="0" y="360" width="800" height="240" fill="#b08a63"/>
  <g fill="#c49a70" opacity="0.5">
    <rect x="0" y="400" width="800" height="8"/><rect x="0" y="470" width="800" height="8"/><rect x="0" y="540" width="800" height="8"/>
  </g>
  <g>
    <rect x="140" y="300" width="520" height="230" rx="16" fill="#d8b98f"/>
    <rect x="160" y="318" width="480" height="194" rx="10" fill="#e6cba4"/>
  </g>
  <g fill="#f3e3c4">
    <rect x="200" y="360" width="380" height="120" rx="8"/>
  </g>
  <g stroke="#d8bd93" stroke-width="4" opacity="0.9">
    <line x1="230" y1="360" x2="230" y2="480"/><line x1="272" y1="360" x2="272" y2="480"/>
    <line x1="314" y1="360" x2="314" y2="480"/><line x1="356" y1="360" x2="356" y2="480"/>
    <line x1="398" y1="360" x2="398" y2="480"/><line x1="440" y1="360" x2="440" y2="480"/>
    <line x1="482" y1="360" x2="482" y2="480"/><line x1="524" y1="360" x2="524" y2="480"/>
  </g>
  <g fill="#8a6a4a">
    <rect x="600" y="180" width="26" height="200" rx="12"/>
    <circle cx="613" cy="172" r="20"/>
  </g>
  <g fill="#ffffff" opacity="0.65">
    <circle cx="250" cy="530" r="7"/><circle cx="300" cy="546" r="5"/><circle cx="360" cy="524" r="6"/>
    <circle cx="470" cy="540" r="6"/><circle cx="540" cy="528" r="5"/><circle cx="180" cy="548" r="5"/>
  </g>
  <g fill="#f6f1e8">
    <ellipse cx="700" cy="470" rx="62" ry="20"/><ellipse cx="700" cy="464" rx="44" ry="13" fill="#e2d8c6"/>
  </g>
</svg>
