<svg xmlns="http://www.w3.org/2000/svg" viewBox="0 0 800 600" width="800" height="600" role="img" aria-labelledby="t">
  <title id="t">Placeholder: e-bike appoggiata a un muretto tra i vigneti</title>
  <defs>
    <linearGradient id="s" x1="0" y1="0" x2="0" y2="1">
      <stop offset="0%" stop-color="#e9dfcd"/><stop offset="100%" stop-color="#b9c0aa"/>
    </linearGradient>
  </defs>
  <rect width="800" height="600" fill="url(#s)"/>
  <path d="M0 300 C 180 260, 340 330, 520 295 S 720 260, 800 300 L800 600 L0 600Z" fill="#7d8f7a"/>
  <path d="M0 380 C 200 345, 420 405, 620 372 S 760 358, 800 380 L800 600 L0 600Z" fill="#536b56"/>
  <g stroke="#26382d" stroke-width="3" opacity="0.35">
    <path d="M40 520 L240 430"/><path d="M160 550 L360 460"/><path d="M280 578 L480 488"/>
  </g>
  <rect x="0" y="470" width="800" height="130" fill="#c9b9a1" opacity="0.6"/>
  <g stroke="#26382d" stroke-width="10" fill="none">
    <circle cx="250" cy="450" r="78"/>
    <circle cx="560" cy="450" r="78"/>
    <path d="M250 450 L360 340 L470 450"/>
    <path d="M360 340 L560 450"/>
    <path d="M360 340 L330 450"/>
  </g>
  <g stroke="#a8684b" stroke-width="9" fill="none">
    <path d="M470 450 L495 350 L540 340"/>
    <path d="M330 448 h60"/>
  </g>
  <rect x="392" y="372" width="70" height="46" rx="8" fill="#26382d"/>
  <rect x="404" y="384" width="46" height="22" rx="4" fill="#9aa88f"/>
</svg>
