<svg xmlns="http://www.w3.org/2000/svg" viewBox="0 0 1920 1080" width="1920" height="1080" role="img" aria-labelledby="t">
  <title id="t">Placeholder: veduta della dimora tra i Colli Berici al tramonto</title>
  <defs>
    <linearGradient id="sky" x1="0" y1="0" x2="0" y2="1">
      <stop offset="0%" stop-color="#e9dfcd"/>
      <stop offset="55%" stop-color="#d8cdbd"/>
      <stop offset="100%" stop-color="#9aa88f"/>
    </linearGradient>
    <linearGradient id="h1" x1="0" y1="0" x2="0" y2="1">
      <stop offset="0%" stop-color="#7d8f7a"/><stop offset="100%" stop-color="#536b56"/>
    </linearGradient>
    <linearGradient id="h2" x1="0" y1="0" x2="0" y2="1">
      <stop offset="0%" stop-color="#536b56"/><stop offset="100%" stop-color="#3a5040"/>
    </linearGradient>
    <linearGradient id="h3" x1="0" y1="0" x2="0" y2="1">
      <stop offset="0%" stop-color="#31473a"/><stop offset="100%" stop-color="#26382d"/>
    </linearGradient>
  </defs>
  <rect width="1920" height="1080" fill="url(#sky)"/>
  <circle cx="1420" cy="300" r="86" fill="#f3ead9" opacity="0.85"/>
  <path d="M0 560 C 300 470, 520 610, 820 545 S 1380 470, 1920 575 L1920 1080 L0 1080Z" fill="url(#h1)" opacity="0.75"/>
  <path d="M0 690 C 360 600, 700 730, 1080 665 S 1620 615, 1920 700 L1920 1080 L0 1080Z" fill="url(#h2)" opacity="0.9"/>
  <path d="M0 840 C 420 780, 760 880, 1180 830 S 1660 800, 1920 855 L1920 1080 L0 1080Z" fill="url(#h3)"/>
  <g stroke="#26382d" stroke-width="2" opacity="0.28">
    <path d="M120 1010 L360 900"/><path d="M260 1030 L500 920"/><path d="M400 1050 L640 940"/>
    <path d="M540 1065 L780 955"/><path d="M1180 960 L1420 1050"/><path d="M1320 940 L1560 1030"/>
    <path d="M1460 925 L1700 1015"/>
  </g>
  <g fill="#f6f1e8" opacity="0.95">
    <rect x="880" y="700" width="230" height="140" rx="3"/>
    <path d="M866 702 L995 628 L1124 702 Z"/>
    <rect x="1110" y="748" width="96" height="92" rx="3" opacity="0.9"/>
  </g>
  <g fill="#26382d" opacity="0.8">
    <rect x="912" y="742" width="30" height="42" rx="2"/>
    <rect x="978" y="742" width="30" height="42" rx="2"/>
    <rect x="1044" y="742" width="30" height="42" rx="2"/>
    <rect x="978" y="800" width="34" height="40" rx="2"/>
  </g>
  <g fill="#3a5040" opacity="0.85">
    <ellipse cx="700" cy="880" rx="52" ry="62"/><rect x="695" y="875" width="9" height="70"/>
    <ellipse cx="1300" cy="905" rx="44" ry="54"/><rect x="1296" y="900" width="8" height="62"/>
  </g>
</svg>
