<svg xmlns="http://www.w3.org/2000/svg" viewBox="0 0 1200 700" width="1200" height="700" role="img" aria-labelledby="t">
  <title id="t">Placeholder mappa: posizione indicativa della dimora nei Colli Berici</title>
  <rect width="1200" height="700" fill="#eae5d9"/>
  <g fill="#dfe4d2">
    <path d="M0 0 h420 v260 H0 Z"/><path d="M760 300 h440 v400 H760 Z"/><path d="M120 460 h380 v240 H120 Z"/>
  </g>
  <g fill="#cfd8c4" opacity="0.8">
    <circle cx="960" cy="180" r="120"/><circle cx="220" cy="360" r="90"/>
  </g>
  <g stroke="#ffffff" stroke-width="16" fill="none" stroke-linecap="round">
    <path d="M0 420 H1200"/><path d="M600 0 V700"/><path d="M0 120 Q 400 200 1200 140"/>
    <path d="M180 700 Q 420 480 1200 560"/>
  </g>
  <g stroke="#d8cdbd" stroke-width="5" fill="none" stroke-dasharray="14 12">
    <path d="M0 260 Q 500 320 1200 250"/>
  </g>
  <g stroke="#9aa88f" stroke-width="4" fill="none">
    <path d="M0 600 Q 300 640 1200 620"/>
  </g>
  <g font-family="system-ui, sans-serif" font-size="20" fill="#5d5b53">
    <text x="60" y="452" letter-spacing="2">SP 500</text>
    <text x="628" y="96" letter-spacing="2">VICENZA</text>
    <text x="820" y="640" letter-spacing="2">BARBARANO</text>
    <text x="120" y="240" letter-spacing="2">LAGO DI FIMON</text>
  </g>
  <g>
    <circle cx="600" cy="420" r="58" fill="#a8684b" opacity="0.2"/>
    <path d="M600 356 c-24 0 -44 20 -44 45 c0 33 44 79 44 79 s44 -46 44 -79 c0 -25 -20 -45 -44 -45 Z" fill="#a8684b"/>
    <circle cx="600" cy="401" r="16" fill="#f6f1e8"/>
  </g>
  <g font-family="system-ui, sans-serif" font-size="24" fill="#26382d" font-weight="600">
    <text x="600" y="516" text-anchor="middle">Dimora dei Colli</text>
  </g>
  <g font-family="system-ui, sans-serif" font-size="17" fill="#5d5b53">
    <text x="600" y="546" text-anchor="middle">Posizione dimostrativa — sostituire con mappa reale</text>
  </g>
  <rect x="2" y="2" width="1196" height="696" fill="none" stroke="#d8cdbd" stroke-width="4"/>
</svg>
