<svg xmlns="http://www.w3.org/2000/svg" viewBox="0 0 1200 630" width="1200" height="630" role="img" aria-labelledby="t">
  <title id="t">Dimora dei Colli — Boutique B&amp;B nei Colli Berici</title>
  <defs>
    <linearGradient id="bg" x1="0" y1="0" x2="0" y2="1">
      <stop offset="0%" stop-color="#31473a"/><stop offset="100%" stop-color="#26382d"/>
    </linearGradient>
  </defs>
  <rect width="1200" height="630" fill="url(#bg)"/>
  <path d="M0 400 C 200 360, 380 430, 600 395 S 980 350, 1200 405 L1200 630 L0 630Z" fill="#3a5040"/>
  <path d="M0 480 C 240 440, 480 510, 720 470 S 1060 445, 1200 485 L1200 630 L0 630Z" fill="#536b56" opacity="0.85"/>
  <circle cx="1010" cy="150" r="58" fill="#f6f1e8" opacity="0.16"/>
  <g fill="#f6f1e8" opacity="0.9">
    <rect x="880" y="410" width="110" height="72" rx="2"/>
    <path d="M872 412 L935 372 L998 412 Z" fill="#a8684b"/>
  </g>
  <g font-family="Georgia, 'Times New Roman', serif" fill="#f6f1e8">
    <text x="90" y="270" font-size="86" letter-spacing="1">Dimora dei Colli</text>
  </g>
  <g font-family="system-ui, sans-serif" fill="#9aa88f">
    <text x="94" y="180" font-size="22" letter-spacing="8">COLLI BERICI · VICENZA</text>
    <text x="94" y="330" font-size="27" fill="#d8cdbd">Boutique B&amp;B · quattro camere · colazione artigianale</text>
  </g>
  <rect x="94" y="200" width="70" height="3" fill="#a8684b"/>
</svg>
