<svg xmlns="http://www.w3.org/2000/svg" viewBox="0 0 800 600" width="800" height="600" role="img" aria-labelledby="t">
  <title id="t">Placeholder: Suite Belvedere, zona soggiorno e terrazza panoramica</title>
  <defs>
    <linearGradient id="w" x1="0" y1="0" x2="0" y2="1">
      <stop offset="0%" stop-color="#f6f1e8"/><stop offset="100%" stop-color="#e3dac9"/>
    </linearGradient>
    <linearGradient id="pan" x1="0" y1="0" x2="0" y2="1">
      <stop offset="0%" stop-color="#e9dfcd"/><stop offset="45%" stop-color="#9aa88f"/><stop offset="100%" stop-color="#3a5040"/>
    </linearGradient>
  </defs>
  <rect width="800" height="600" fill="url(#w)"/>
  <rect x="60" y="60" width="680" height="300" rx="6" fill="url(#pan)"/>
  <circle cx="600" cy="140" r="34" fill="#f3ead9" opacity="0.85"/>
  <path d="M60 250 C 200 210, 330 280, 470 245 S 660 215, 740 255 L740 360 L60 360Z" fill="#536b56" opacity="0.85"/>
  <path d="M60 300 C 220 268, 360 322, 520 292 S 690 276, 740 302 L740 360 L60 360Z" fill="#26382d"/>
  <g stroke="#a8684b" stroke-width="8" fill="none">
    <rect x="60" y="60" width="680" height="300" rx="6"/>
    <line x1="286" y1="60" x2="286" y2="360"/><line x1="514" y1="60" x2="514" y2="360"/>
  </g>
  <g stroke="#8a6a4a" stroke-width="5">
    <line x1="60" y1="378" x2="740" y2="378"/>
    <line x1="120" y1="378" x2="120" y2="428"/><line x1="230" y1="378" x2="230" y2="428"/>
    <line x1="340" y1="378" x2="340" y2="428"/><line x1="450" y1="378" x2="450" y2="428"/>
    <line x1="560" y1="378" x2="560" y2="428"/><line x1="670" y1="378" x2="670" y2="428"/>
    <line x1="60" y1="428" x2="740" y2="428"/>
  </g>
  <rect x="90" y="452" width="240" height="80" rx="12" fill="#7d8f7a"/>
  <rect x="104" y="440" width="96" height="34" rx="9" fill="#efe7d9"/>
  <rect x="212" y="440" width="96" height="34" rx="9" fill="#efe7d9"/>
  <rect x="380" y="470" width="130" height="14" rx="4" fill="#8a6a4a"/>
  <rect x="396" y="484" width="10" height="52" fill="#8a6a4a"/><rect x="484" y="484" width="10" height="52" fill="#8a6a4a"/>
  <g fill="#a8684b"><circle cx="600" cy="500" r="22"/><rect x="596" y="500" width="8" height="42"/></g>
  <rect x="0" y="546" width="800" height="54" fill="#d8cdbd" opacity="0.6"/>
</svg>
