<svg xmlns="http://www.w3.org/2000/svg" viewBox="0 0 1200 800" width="1200" height="800" role="img" aria-labelledby="t">
  <title id="t">Placeholder: terrazza panoramica al tramonto sui Colli Berici</title>
  <defs>
    <linearGradient id="sun" x1="0" y1="0" x2="0" y2="1">
      <stop offset="0%" stop-color="#f0e3cc"/><stop offset="45%" stop-color="#dcbf9c"/><stop offset="100%" stop-color="#a8684b"/>
    </linearGradient>
  </defs>
  <rect width="1200" height="800" fill="url(#sun)"/>
  <circle cx="860" cy="330" r="70" fill="#f6e7cd" opacity="0.9"/>
  <path d="M0 420 C 220 370, 420 450, 640 405 S 980 360, 1200 425 L1200 560 L0 560Z" fill="#7d8f7a" opacity="0.75"/>
  <path d="M0 480 C 260 430, 500 510, 760 465 S 1080 440, 1200 486 L1200 620 L0 620Z" fill="#536b56" opacity="0.9"/>
  <path d="M0 545 C 300 505, 560 575, 840 530 S 1120 512, 1200 548 L1200 620 L0 620Z" fill="#26382d"/>
  <rect x="0" y="618" width="1200" height="182" fill="#c9b9a1"/>
  <g stroke="#b0a08a" stroke-width="3" opacity="0.8">
    <line x1="0" y1="670" x2="1200" y2="670"/><line x1="0" y1="730" x2="1200" y2="730"/>
    <line x1="200" y1="618" x2="200" y2="800"/><line x1="500" y1="618" x2="500" y2="800"/>
    <line x1="800" y1="618" x2="800" y2="800"/><line x1="1050" y1="618" x2="1050" y2="800"/>
  </g>
  <g stroke="#26382d" stroke-width="6" opacity="0.85">
    <line x1="0" y1="600" x2="1200" y2="600"/>
    <line x1="120" y1="600" x2="120" y2="640"/><line x1="320" y1="600" x2="320" y2="640"/>
    <line x1="520" y1="600" x2="520" y2="640"/><line x1="720" y1="600" x2="720" y2="640"/>
    <line x1="920" y1="600" x2="920" y2="640"/><line x1="1120" y1="600" x2="1120" y2="640"/>
  </g>
  <g fill="#3a5040">
    <rect x="330" y="640" width="12" height="90"/><rect x="290" y="700" width="92" height="12" rx="4"/>
    <rect x="286" y="640" width="10" height="70"/><rect x="376" y="640" width="10" height="70"/>
    <rect x="770" y="640" width="12" height="90"/><rect x="730" y="700" width="92" height="12" rx="4"/>
    <rect x="726" y="640" width="10" height="70"/><rect x="816" y="640" width="10" height="70"/>
  </g>
  <rect x="520" y="680" width="90" height="10" rx="3" fill="#8a6a4a"/>
  <rect x="558" y="690" width="8" height="48" fill="#8a6a4a"/>
  <g fill="#f6f1e8" opacity="0.9"><circle cx="540" cy="668" r="9"/><circle cx="586" cy="668" r="9"/></g>
</svg>
