<svg xmlns="http://www.w3.org/2000/svg" viewBox="0 0 1200 800" width="1200" height="800" role="img" aria-labelledby="t">
  <title id="t">Placeholder: panorama dei Colli Berici con vigneti e borghi</title>
  <defs>
    <linearGradient id="sky" x1="0" y1="0" x2="0" y2="1">
      <stop offset="0%" stop-color="#eae2d1"/><stop offset="100%" stop-color="#cbd0bd"/>
    </linearGradient>
  </defs>
  <rect width="1200" height="800" fill="url(#sky)"/>
  <circle cx="960" cy="180" r="60" fill="#f3ead9" opacity="0.8"/>
  <path d="M0 330 C 180 280, 340 360, 520 320 S 860 260, 1200 330 L1200 800 L0 800Z" fill="#9aa88f" opacity="0.7"/>
  <path d="M0 430 C 220 380, 460 460, 700 415 S 1040 380, 1200 430 L1200 800 L0 800Z" fill="#7d8f7a"/>
  <path d="M0 540 C 260 495, 520 570, 780 525 S 1080 500, 1200 540 L1200 800 L0 800Z" fill="#536b56"/>
  <path d="M0 650 C 300 615, 600 680, 900 640 S 1120 625, 1200 655 L1200 800 L0 800Z" fill="#3a5040"/>
  <g stroke="#26382d" stroke-width="3" opacity="0.3">
    <path d="M80 780 L320 665"/><path d="M200 795 L440 680"/><path d="M320 800 L560 690"/>
    <path d="M760 690 L1000 790"/><path d="M880 672 L1120 772"/>
  </g>
  <g fill="#f6f1e8" opacity="0.9">
    <rect x="520" y="470" width="70" height="55" rx="2"/>
    <path d="M512 472 L555 442 L598 472 Z" fill="#a8684b"/>
    <rect x="600" y="486" width="46" height="39" rx="2"/>
    <path d="M594 488 L623 468 L652 488 Z" fill="#a8684b"/>
    <rect x="480" y="492" width="34" height="33" rx="2"/>
  </g>
  <g fill="#f6f1e8" opacity="0.85">
    <rect x="286" y="576" width="14" height="70"/>
    <path d="M280 576 L293 552 L306 576 Z" fill="#a8684b"/>
  </g>
  <g fill="#26382d" opacity="0.8">
    <ellipse cx="140" cy="600" rx="40" ry="50"/><rect x="135" y="595" width="9" height="58"/>
    <ellipse cx="1060" cy="620" rx="34" ry="44"/><rect x="1056" y="616" width="8" height="50"/>
  </g>
  <ellipse cx="880" cy="560" rx="120" ry="30" fill="#9aa88f" opacity="0.45"/>
</svg>
